<svg xmlns="http://www.w3.org/2000/svg" width="64" height="64">
	<path fill="#108BE3" d="M61.998 55.168L49.056 42.226c3.119-4.502 4.679-9.52 4.679-15.055 0-3.597-.699-7.037-2.095-10.32-1.396-3.283-3.283-6.113-5.66-8.49-2.377-2.377-5.207-4.264-8.489-5.66A26.106 26.106 0 0 0 27.171.607c-3.597 0-7.038.698-10.32 2.094-3.283 1.396-6.113 3.283-8.49 5.66-2.378 2.377-4.264 5.208-5.66 8.49a26.103 26.103 0 0 0-2.095 10.32c0 3.597.699 7.036 2.095 10.32 1.396 3.282 3.282 6.112 5.66 8.49 2.377 2.377 5.207 4.263 8.49 5.66a26.105 26.105 0 0 0 10.32 2.093c5.534 0 10.553-1.56 15.055-4.679L55.17 61.96c.905.956 2.036 1.434 3.395 1.434 1.334 0 2.471-.471 3.415-1.415.943-.943 1.415-2.08 1.415-3.414s-.465-2.465-1.396-3.396zM39.113 39.112c-3.308 3.309-7.288 4.963-11.943 4.963-4.653 0-8.633-1.655-11.942-4.963-3.308-3.308-4.962-7.288-4.962-11.942 0-4.653 1.655-8.634 4.962-11.942 3.308-3.308 7.29-4.962 11.942-4.962 4.654 0 8.635 1.655 11.943 4.962 3.308 3.308 4.962 7.289 4.962 11.942 0 4.654-1.654 8.634-4.962 11.942z"/>
	<path fill="#108BE3" d="M38.038 24.756H16.304c-.327 0-.61.12-.849.358a1.16 1.16 0 0 0-.358.85v2.414c0 .327.12.61.358.849.24.239.522.358.85.358h21.733c.328 0 .61-.12.85-.358a1.16 1.16 0 0 0 .357-.85v-2.414c0-.327-.12-.61-.358-.849a1.16 1.16 0 0 0-.85-.358z"/>
</svg>